<?xml version="1.0" encoding="UTF-8"?> <svg xmlns="http://www.w3.org/2000/svg" id="Capa_1" height="512" viewBox="0 0 512 512" width="512"> <g> <path d="m429.78 74.98c-48.352-48.351-112.64-74.98-181.019-74.98-8.284 0-15 6.716-15 15v26.522c-51.781 3.545-99.976 25.398-137.028 62.45-40.609 40.608-62.972 94.599-62.972 152.028 0 19.91 2.855 39.761 8.487 59.202l-25.135 9.148c-7.785 2.834-11.799 11.442-8.965 19.227 17.795 48.878 49.686 90.735 92.224 121.047 43.497 30.994 94.808 47.376 148.389 47.376 68.38 0 132.667-26.629 181.02-74.98 48.352-48.353 74.98-112.64 74.98-181.02s-26.629-132.667-74.981-181.02zm-136.019 86.02v1.755c0 29.663-17.888 56.072-45 67.238-27.112-11.167-45-37.575-45-67.238v-1.755zm0 168.246v1.754h-90v-1.754c0-29.663 17.888-56.071 45-67.239 27.111 11.168 45 37.576 45 67.239zm-60-257.635v59.389h-65c-8.284 0-15 6.716-15 15s6.716 15 15 15h5v1.755c0 33.622 16.265 64.291 42.481 83.245-4.315 3.12-8.354 6.563-12.102 10.278l-133.625 48.636c-4.48-16.107-6.755-32.501-6.755-48.914.001-96.96 74.98-176.728 170.001-184.389zm15 410.389c-89.645 0-170.944-53.575-206.819-134.761l136.856-49.811c-3.277 10.084-5.037 20.79-5.037 31.818v1.754h-5c-8.284 0-15 6.716-15 15s6.716 15 15 15h160c8.284 0 15-6.716 15-15s-6.716-15-15-15h-5v-1.754c0-33.621-16.266-64.291-42.481-83.246 26.216-18.954 42.481-49.623 42.481-83.245v-1.755h5c8.284 0 15-6.716 15-15s-6.716-15-15-15h-65v-100.508c117.646 7.75 211 105.934 211 225.508 0 124.617-101.383 226-226 226z"></path> </g> </svg> 