<svg width="56" height="50" xmlns="http://www.w3.org/2000/svg"><path d="m40.162 15.066.246.288c.452.534 1.273.616 1.807.164l7.145-5.995c.534-.452.617-1.273.165-1.807l-.247-.329c-.451-.534-1.273-.616-1.806-.164l-7.146 6.037c-.575.451-.616 1.273-.164 1.806Zm4.6 5.421c.328.657 1.108.904 1.724.575l8.377-4.148c.657-.328.904-1.108.575-1.724l-.164-.37c-.329-.657-1.109-.903-1.725-.575l-8.377 4.148c-.657.328-.904 1.108-.575 1.724l.164.37ZM43.2.488l-.329-.246c-.575-.41-1.396-.288-1.807.287l-5.502 7.515c-.411.575-.288 1.396.287 1.807l.328.246c.575.411 1.397.288 1.807-.287l5.544-7.515c.37-.575.247-1.396-.328-1.807ZM.45 44.716l3.82 4.558c.698.821 1.97.986 2.833.287l19.588-16.426-6.365-7.638-1.355 1.15c-.575-.698-1.478-.698-2.094-.164l-1.355 1.15c-.616.533-.78 1.437-.165 2.094L.74 41.923a1.968 1.968 0 0 0-.287 2.793ZM23.49 21.555c-.164.698-.78 1.724-1.437 2.464l6.447 7.679c.822-.534 1.93-.986 2.67-1.027l1.601-.082 4.189-.246c1.232-.082 2.915-.616 4.188-1.355l-14.25-17.043c-.944 1.15-1.765 2.67-2.053 3.86l-.985 4.148-.37 1.602Zm5.092-11.129L42.954 27.55a3.031 3.031 0 0 0-.082-3.819L32.277 11.124c-.903-1.109-2.464-1.355-3.696-.698Z"/></svg>