<svg width="56" height="50" xmlns="http://www.w3.org/2000/svg"><path d="M48.027 9.096 31.233 20.219l1.918 2.877-10.932 7.233-6.548-9.863 10.96-7.26 1.944 2.931L44.356 5.671C39.7 2.137 33.946 0 27.644 0 12.384.055 0 12.438 0 27.699 0 36.877 4.493 44.959 11.342 50v-2.685c0-1.178.96-2.164 2.165-2.164h2.164v-3.288c0-1.178.96-2.164 2.165-2.164H37.48c1.178 0 2.164.959 2.164 2.164v3.288h2.164c1.178 0 2.165.959 2.165 2.164V50c6.876-5.041 11.342-13.123 11.342-22.301C55.288 20.52 52.521 14 48.027 9.096Zm-35.452 8.767c-.082-.082-.383-.52-.41-.63-.439-.959-.11-2.11.794-2.74l9.452-6.192a2.18 2.18 0 0 1 2.548.055c.192.137.657.795.712.932.384.959.082 2.082-.822 2.657l-9.424 6.22c-.905.63-2.11.465-2.85-.302Zm23.288 11.206-9.452 6.191c-.904.603-2.11.466-2.822-.301-.082-.082-.383-.52-.41-.63-.44-.96-.11-2.11.794-2.74l9.452-6.192a2.18 2.18 0 0 1 2.548.055c.191.137.657.795.712.932.356.986.055 2.11-.822 2.684Z"/></svg>