<svg xmlns="http://www.w3.org/2000/svg" xmlns:xlink="http://www.w3.org/1999/xlink" xml:space="preserve" version="1.1" style="shape-rendering:geometricPrecision;text-rendering:geometricPrecision;image-rendering:optimizeQuality;" viewBox="0 0 100 100" x="0px" y="0px" fill-rule="evenodd" clip-rule="evenodd" preserveAspectRatio="none" width="100%" height="100%" class="" fill="rgba(16, 145, 33, 1)"><defs>
</defs><g><path class="cls-ioKOmu cls-rbTLTF" d="M83 40c-9,30 -36,19 -30,47l0 0c26,0 34,-23 31,-36 4,18 -7,40 -29,38l-1 0c4,6 17,7 24,5 18,-8 16,-39 5,-54zm-35 25c-4,-1 -22,-7 -20,-23 2,-18 26,-37 26,-37 10,24 25,34 18,47 -6,8 -14,11 -19,12 -11,-26 -1,-46 -1,-46 0,0 -10,20 -4,47zm-37 -16c10,18 33,12 38,23 0,2 0,5 0,7 -33,1 -34,-16 -34,-16 0,0 1,17 33,19 -5,9 -17,10 -29,3 -13,-10 -12,-23 -8,-36z"></path></g><defs><style>.cls-rbTLTF {fill: inherit !important;}</style></defs></svg>
